<?xml version="1.0" encoding="UTF-8" standalone="no"?>
<!-- Created with Inkscape (http://www.inkscape.org/) -->

<svg
   width="4.7467198mm"
   height="5.2409601mm"
   viewBox="0 0 4.7467198 5.2409601"
   version="1.1"
   id="svg1"
   xml:space="preserve"
   xmlns="http://www.w3.org/2000/svg"
   xmlns:svg="http://www.w3.org/2000/svg"><defs
     id="defs1" /><g
     id="layer1"
     transform="translate(-108.08257,-120.91743)"><g
       id="g2"><path
         d="m 112.1864,123.29078 h -3.46095 c -0.27323,0 -0.49455,0.22132 -0.49455,0.49425 v 1.73077 c 0,0.27294 0.22132,0.49425 0.49455,0.49425 h 3.46095 c 0.27323,0 0.49455,-0.22131 0.49455,-0.49425 v -1.73077 c 0,-0.27293 -0.22132,-0.49425 -0.49455,-0.49425 z"
         stroke="#ffffff"
         stroke-linecap="round"
         stroke-linejoin="round"
         id="path8"
         style="fill:none;stroke-width:0.29667" /><path
         d="m 109.2197,123.29078 v -0.9891 c 0,-0.32782 0.13024,-0.64229 0.36224,-0.87398 0.2317,-0.2317 0.54616,-0.36194 0.87398,-0.36194 0.32782,0 0.64229,0.13024 0.87399,0.36194 0.232,0.23169 0.36224,0.54616 0.36224,0.87398 v 0.9891"
         stroke="#ffffff"
         stroke-linecap="round"
         stroke-linejoin="round"
         id="path9"
         style="fill:none;stroke-width:0.29667" /></g></g></svg>
